<?xml version="1.0" standalone="no"?>
<!DOCTYPE svg PUBLIC "-//W3C//DTD SVG 20010904//EN"
 "http://www.w3.org/TR/2001/REC-SVG-20010904/DTD/svg10.dtd">
<svg version="1.0" xmlns="http://www.w3.org/2000/svg"
 width="2000.000000pt" height="1138.000000pt" viewBox="0 0 2000.000000 1138.000000"
 preserveAspectRatio="xMidYMid meet">
<metadata>
Created by potrace 1.12, written by Peter Selinger 2001-2015
</metadata>
<g transform="translate(0.000000,1138.000000) scale(0.100000,-0.100000)"
fill="#000000" stroke="none">
<path d="M16588 8351 c-95 -31 -185 -103 -299 -240 -240 -286 -484 -742 -840
-1570 -69 -161 -119 -266 -129 -268 -8 -2 -37 -38 -62 -79 -39 -61 -52 -74
-73 -74 -50 0 -81 -49 -75 -118 4 -49 -157 -219 -254 -267 -56 -28 -131 -33
-161 -11 -40 29 -17 169 60 361 43 108 220 459 304 603 64 112 66 119 31 137
-16 8 -31 15 -33 15 -8 0 -200 -230 -273 -327 -79 -103 -183 -273 -232 -378
-90 -190 -96 -391 -14 -479 62 -66 180 -85 301 -47 72 22 204 114 268 186 l45
50 -17 -40 c-9 -22 -93 -231 -186 -464 -94 -233 -204 -504 -245 -602 -41 -99
-74 -184 -74 -189 0 -11 189 -104 196 -97 5 4 143 341 319 777 81 201 150 368
154 372 3 4 31 -2 61 -12 68 -24 199 -26 288 -5 156 37 325 147 485 314 l97
103 0 -74 c0 -227 126 -380 357 -434 101 -24 272 -14 381 20 242 78 493 301
692 615 l53 82 -29 30 c-15 16 -33 29 -39 29 -6 0 -31 -30 -55 -67 -204 -314
-431 -512 -664 -580 -154 -45 -271 -39 -363 16 -72 44 -127 180 -121 296 l3
60 40 3 c200 13 461 99 625 204 69 44 197 163 234 217 77 111 99 271 50 369
-47 95 -129 143 -246 143 -40 0 -95 -5 -123 -11 -67 -15 -234 -103 -320 -168
-143 -109 -291 -273 -362 -401 -120 -215 -326 -456 -473 -552 -162 -107 -334
-151 -455 -118 -83 23 -87 2 54 337 l126 302 60 36 c161 96 404 332 622 604
213 264 397 561 497 800 142 339 152 521 35 581 -60 30 -148 34 -221 10z m163
-118 c10 -11 14 -41 13 -92 -5 -320 -536 -1155 -989 -1553 -55 -48 -100 -86
-102 -85 -6 6 322 779 416 980 173 370 392 678 531 744 55 27 112 29 131 6z
m479 -1435 c41 -44 22 -160 -42 -263 -119 -190 -352 -359 -569 -414 -124 -31
-149 -34 -149 -17 0 30 121 254 181 335 125 170 302 326 415 366 63 23 139 19
164 -7z"/>
<path d="M14564 8251 c-239 -65 -464 -265 -699 -621 -123 -188 -207 -328 -442
-740 -251 -438 -291 -502 -328 -513 -17 -5 -120 -11 -230 -14 -152 -4 -224 -1
-300 11 -428 65 -729 291 -812 606 -23 87 -22 261 1 355 23 94 93 236 155 311
177 217 505 334 853 303 127 -11 314 -54 402 -93 32 -14 62 -26 67 -26 8 0 59
73 59 84 0 2 -33 18 -72 34 -326 136 -785 148 -1098 29 -331 -125 -542 -370
-591 -687 -14 -94 -6 -284 16 -365 22 -81 84 -202 139 -274 148 -192 415 -332
736 -386 120 -20 396 -29 520 -17 52 5 96 8 97 7 2 -1 -40 -57 -91 -126 -104
-136 -193 -239 -273 -313 l-52 -48 -118 22 c-145 27 -441 38 -553 21 -153 -23
-257 -77 -295 -152 -23 -44 -19 -130 8 -170 53 -79 126 -104 302 -103 190 0
335 36 522 130 l101 51 169 -54 c419 -135 578 -167 813 -167 137 0 180 3 253
22 105 26 206 68 282 116 58 38 145 113 145 126 0 5 -17 22 -38 39 l-38 30
-54 -44 c-98 -80 -198 -122 -336 -140 -103 -13 -278 23 -664 138 -118 35 -238
70 -266 77 l-51 13 110 106 c126 122 279 300 402 469 1 1 58 17 126 36 577
159 1088 514 1382 961 158 241 236 500 209 694 -18 127 -67 202 -159 248 -76
36 -203 42 -309 14z m249 -105 c43 -17 93 -76 106 -123 25 -89 7 -254 -42
-384 -156 -415 -584 -826 -1111 -1066 -108 -50 -308 -123 -335 -123 -6 0 21
48 59 106 38 58 136 217 216 352 355 597 400 672 461 765 170 259 335 424 471
473 48 17 134 17 175 0z m-2743 -2456 c97 -10 319 -56 333 -69 10 -9 -102 -61
-204 -95 -101 -34 -247 -50 -330 -37 -210 34 -142 198 86 210 11 0 63 -4 115
-9z"/>
<path d="M4365 8209 c-383 -52 -734 -267 -899 -550 -43 -74 -84 -200 -96 -293
-14 -104 -1 -226 35 -321 l23 -62 -80 -7 c-546 -46 -943 -373 -1019 -840 -18
-114 -7 -282 25 -381 95 -295 358 -481 746 -527 130 -15 378 -4 502 22 501
106 937 437 1308 995 54 81 74 112 126 197 105 173 271 372 320 384 12 3 36 4
55 2 34 -3 34 -3 37 -61 4 -79 -19 -162 -83 -294 -107 -223 -242 -439 -458
-733 -69 -93 -111 -159 -106 -165 8 -8 95 -44 150 -61 15 -5 22 3 185 221 69
92 217 286 323 425 174 228 378 446 487 520 109 75 174 87 226 41 28 -25 32
-35 36 -93 4 -62 2 -68 -55 -179 -33 -63 -95 -170 -137 -238 -156 -250 -236
-429 -236 -531 0 -52 30 -123 67 -162 31 -32 119 -68 166 -68 46 1 156 42 208
78 118 81 262 233 375 395 30 42 56 77 59 77 2 0 4 -35 4 -78 0 -176 60 -300
174 -360 48 -25 60 -27 172 -27 106 0 127 3 175 25 91 41 180 106 283 207 l97
96 0 -44 c0 -90 73 -192 156 -219 61 -20 182 -7 256 27 155 73 285 216 448
493 81 138 146 244 225 365 29 45 59 94 68 110 31 58 31 58 73 21 21 -19 52
-45 67 -58 15 -12 29 -32 31 -43 5 -30 -20 -91 -68 -170 -96 -157 -142 -247
-197 -385 -31 -78 -33 -94 -34 -195 0 -103 2 -113 27 -152 40 -61 74 -89 130
-107 107 -34 228 -11 343 64 102 68 192 168 305 340 14 21 27 41 30 43 3 3 6
-24 7 -59 4 -124 43 -206 136 -290 64 -57 108 -80 204 -105 152 -38 339 -19
489 51 193 89 415 298 582 549 l76 114 -32 28 c-18 16 -36 29 -40 29 -5 0 -35
-39 -67 -86 -254 -375 -506 -561 -797 -590 -114 -11 -214 26 -273 103 -47 61
-67 132 -63 225 l3 73 35 3 c157 12 304 51 475 124 262 113 451 321 463 510 5
87 -8 141 -48 196 -59 83 -159 116 -300 100 -81 -9 -256 -93 -368 -176 -154
-114 -300 -278 -371 -419 -17 -35 -35 -63 -39 -63 -4 0 -24 -28 -45 -62 -127
-213 -260 -398 -347 -482 -119 -116 -245 -155 -304 -96 -18 18 -21 32 -19 94
2 82 37 179 113 316 122 216 151 275 180 373 24 79 7 106 -164 253 l-69 59 6
71 c6 69 6 71 -19 83 -14 6 -27 11 -29 11 -5 0 -70 -99 -262 -400 -33 -52 -91
-144 -129 -203 -217 -339 -345 -495 -449 -546 -66 -33 -149 -40 -175 -16 -70
63 55 400 339 917 45 81 81 151 81 157 0 13 -46 44 -58 39 -16 -6 -255 -301
-327 -403 -38 -55 -94 -141 -123 -191 -115 -195 -323 -440 -444 -521 -71 -48
-160 -83 -212 -83 -45 0 -95 22 -128 57 -116 122 -13 547 279 1156 l66 137
303 0 304 0 15 23 c8 13 18 37 21 55 l7 32 -286 0 c-176 0 -288 4 -292 10 -7
11 52 124 199 378 58 101 106 187 106 190 0 11 -65 52 -82 52 -43 0 -273 -298
-422 -548 -21 -34 -46 -67 -56 -72 -10 -6 -86 -10 -167 -10 l-149 0 -17 -46
c-9 -25 -14 -50 -11 -55 3 -5 68 -9 145 -9 76 0 139 -2 139 -5 0 -3 -22 -49
-49 -103 -90 -178 -194 -432 -231 -564 -7 -27 -16 -48 -20 -48 -4 0 -27 -30
-51 -67 -24 -38 -49 -75 -56 -83 -7 -8 -45 -61 -86 -117 -188 -261 -375 -433
-471 -433 -94 0 -67 141 75 388 34 59 68 114 75 122 35 43 128 252 150 337 28
113 29 131 8 215 -21 81 -33 104 -81 151 -133 134 -343 88 -597 -132 -26 -23
-49 -41 -51 -41 -2 0 1 15 6 33 12 43 -15 164 -46 207 -61 83 -167 112 -259
72 -109 -49 -228 -195 -452 -556 -189 -304 -471 -598 -751 -782 -101 -67 -297
-162 -405 -198 -295 -96 -632 -83 -858 35 -147 76 -258 223 -290 382 -17 82
-14 241 6 328 19 90 88 239 148 323 155 217 426 370 726 410 45 6 45 6 90 -49
123 -150 303 -245 464 -245 134 0 201 58 193 168 -4 63 -25 95 -91 139 -78 53
-214 86 -411 101 l-100 7 -17 60 c-90 324 161 720 584 920 345 162 712 150
823 -29 26 -43 30 -59 30 -120 0 -60 -5 -82 -32 -137 -32 -64 -114 -156 -179
-200 -150 -102 -408 -179 -601 -179 -62 0 -63 0 -63 -27 0 -16 -3 -38 -6 -50
-6 -23 -5 -23 94 -23 120 0 247 21 364 60 269 90 458 254 513 444 25 85 17
204 -17 271 -51 100 -169 181 -318 219 -78 20 -306 29 -405 15z m-530 -1350
c167 -23 255 -67 255 -128 0 -72 -119 -82 -240 -21 -59 30 -180 132 -180 152
0 11 73 10 165 -3z m6581 -47 c36 -24 43 -88 19 -170 -19 -62 -116 -211 -177
-269 -144 -138 -359 -246 -556 -278 -42 -7 -42 -7 -33 19 116 304 405 634 611
697 33 10 122 11 136 1z"/>
<path d="M8369 7281 c-47 -39 -87 -116 -95 -184 -6 -51 -5 -57 20 -82 23 -23
34 -27 66 -22 83 11 179 115 188 205 4 42 1 51 -26 80 -41 44 -101 45 -153 3z"/>
<path d="M15290 7288 c-79 -54 -130 -228 -81 -277 41 -41 128 -16 191 55 41
48 60 92 60 144 0 87 -94 129 -170 78z"/>
<path d="M10935 5810 c-34 -22 -65 -74 -65 -108 0 -37 25 -86 59 -115 85 -71
221 -1 221 113 0 102 -128 168 -215 110z"/>
<path d="M6495 3869 c-38 -3 -79 -10 -90 -14 -92 -37 -66 -125 54 -179 73 -32
125 -42 311 -56 286 -22 1205 -129 1680 -196 96 -14 290 -45 430 -69 140 -25
426 -69 635 -100 981 -143 1247 -194 1428 -277 56 -26 82 -47 153 -124 110
-120 190 -180 339 -254 356 -176 628 -204 1183 -124 410 58 756 150 987 260
100 47 135 80 142 130 7 58 -15 87 -101 129 -123 61 -191 69 -601 69 -242 -1
-430 -6 -574 -17 -241 -19 -872 -23 -1077 -7 -145 11 -244 43 -355 115 -114
74 -170 89 -577 160 -141 24 -554 96 -917 159 -1324 230 -1407 244 -1865 301
-383 47 -758 84 -919 91 -75 2 -149 6 -166 7 -16 2 -61 0 -100 -4z"/>
</g>
</svg>
