<?xml version="1.0" standalone="no"?>
<!DOCTYPE svg PUBLIC "-//W3C//DTD SVG 20010904//EN"
 "http://www.w3.org/TR/2001/REC-SVG-20010904/DTD/svg10.dtd">
<svg version="1.0" xmlns="http://www.w3.org/2000/svg"
 width="1217.000000pt" height="631.000000pt" viewBox="0 0 1217.000000 631.000000"
 preserveAspectRatio="xMidYMid meet">
<metadata>
Created by potrace 1.12, written by Peter Selinger 2001-2015
</metadata>
<g transform="translate(0.000000,631.000000) scale(0.100000,-0.100000)"
fill="#000000" stroke="none">
<path d="M10858 6196 c-287 -118 -631 -668 -1102 -1761 -81 -187 -151 -342
-157 -343 -5 -2 -32 -37 -60 -78 -42 -63 -54 -74 -78 -74 -16 0 -40 -11 -55
-25 -24 -23 -27 -32 -25 -81 l3 -55 -74 -81 c-137 -150 -244 -207 -323 -174
-46 19 -53 46 -38 138 23 140 133 390 334 760 59 108 107 201 107 207 0 6 -13
17 -30 26 l-29 15 -92 -108 c-319 -374 -473 -651 -486 -869 -7 -120 7 -174 61
-228 119 -119 337 -76 529 103 39 37 68 60 65 52 -190 -472 -455 -1126 -482
-1188 -20 -46 -36 -87 -36 -91 0 -9 198 -106 204 -100 4 4 226 547 396 969 46
113 84 206 85 207 1 2 26 -7 56 -18 76 -30 226 -29 324 1 127 40 289 135 394
234 18 17 64 66 102 109 l69 77 0 -64 c0 -290 193 -466 515 -468 130 0 213 20
350 87 180 88 343 235 505 452 l80 108 0 78 c0 43 -4 77 -10 77 -5 0 -36 -40
-69 -88 -229 -342 -474 -539 -727 -588 -165 -31 -257 -12 -339 70 -65 65 -98
156 -93 256 l3 65 45 7 c262 42 338 63 496 138 284 133 454 333 454 533 0 167
-96 266 -267 275 -63 3 -96 0 -150 -17 -143 -44 -299 -140 -435 -270 -108
-102 -170 -179 -234 -291 -27 -46 -56 -92 -64 -101 -8 -9 -44 -57 -79 -108
-74 -106 -218 -262 -302 -327 -68 -52 -193 -118 -262 -139 -84 -25 -186 -29
-250 -11 -31 9 -59 20 -62 26 -3 5 52 147 122 315 l128 306 45 26 c98 56 202
143 355 297 408 409 724 890 867 1320 37 110 41 131 42 228 1 92 -2 110 -20
135 -53 74 -192 96 -306 49z m192 -115 c15 -29 12 -138 -5 -205 -70 -268 -331
-715 -634 -1086 -136 -166 -383 -417 -442 -450 -24 -13 336 840 452 1071 169
338 363 599 492 664 62 31 122 33 137 6z m481 -1450 c25 -25 29 -37 29 -83 -1
-172 -222 -427 -475 -548 -117 -56 -325 -110 -325 -84 0 5 23 56 51 114 146
304 382 549 594 616 65 21 93 17 126 -15z"/>
<path d="M8830 6105 c-134 -33 -281 -126 -419 -265 -204 -204 -330 -397 -803
-1225 -69 -121 -152 -263 -185 -315 l-60 -95 -94 -13 c-138 -19 -425 -9 -554
18 -508 108 -809 451 -756 862 40 311 224 543 523 658 115 44 197 60 348 67
197 8 401 -25 561 -92 95 -40 92 -40 117 4 12 22 22 44 22 49 0 5 -33 23 -72
39 -315 131 -754 148 -1076 42 -236 -78 -429 -230 -545 -431 -100 -173 -131
-466 -71 -669 99 -334 418 -572 874 -654 114 -20 429 -30 552 -18 l87 9 -37
-51 c-117 -163 -241 -309 -332 -393 l-56 -50 -144 25 c-182 32 -468 37 -588
10 -153 -34 -239 -93 -262 -178 -30 -110 37 -204 169 -239 70 -18 255 -14 371
10 119 24 201 53 328 117 l92 46 88 -27 c485 -149 610 -180 796 -195 209 -16
405 13 553 83 87 42 176 101 222 150 38 39 36 47 -21 87 l-29 21 -37 -34 c-60
-54 -132 -95 -217 -124 -67 -23 -97 -27 -185 -28 -121 0 -201 15 -439 84 -437
125 -496 143 -500 146 -3 3 37 43 87 90 102 95 246 258 358 405 64 85 77 97
111 103 171 30 497 160 713 284 438 252 796 646 933 1029 66 182 75 386 22
501 -33 74 -95 133 -162 156 -57 20 -205 20 -283 1z m256 -114 c47 -21 86 -68
104 -125 17 -53 7 -221 -18 -306 -151 -511 -714 -1021 -1380 -1251 -63 -21
-116 -38 -118 -36 -1 1 27 47 62 102 60 91 159 257 512 850 204 343 323 507
460 637 143 135 270 178 378 129z m-2630 -2517 c67 -13 134 -28 150 -34 l28
-11 -30 -19 c-39 -26 -174 -78 -249 -95 -163 -38 -314 -28 -367 25 -33 34 -35
58 -7 94 62 79 215 92 475 40z"/>
<path d="M4441 6034 c-176 -47 -396 -187 -676 -430 -124 -107 -476 -456 -617
-612 l-66 -72 -33 42 c-76 99 -186 212 -261 268 -93 70 -234 141 -329 164 -74
18 -231 21 -298 5 -180 -41 -342 -206 -386 -391 -71 -302 94 -622 448 -871 49
-34 96 -67 105 -73 14 -10 -8 -36 -153 -181 -334 -332 -621 -493 -936 -522
-191 -18 -376 17 -558 105 -98 48 -125 67 -190 132 -42 43 -88 100 -103 128
-156 290 27 648 367 719 84 18 144 19 272 4 236 -26 439 -120 570 -262 l50
-55 41 26 c23 15 42 30 42 35 0 18 -58 97 -114 156 -117 122 -270 209 -454
258 -88 24 -115 27 -292 27 -175 1 -203 -1 -274 -22 -221 -64 -374 -202 -431
-389 -25 -79 -30 -216 -11 -313 72 -382 488 -661 986 -661 173 1 273 19 423
77 259 100 527 294 768 557 57 62 104 113 105 115 0 1 57 -24 125 -57 260
-122 603 -240 897 -306 39 -9 72 -20 72 -23 0 -4 -23 -60 -52 -125 -30 -69
-48 -121 -42 -126 10 -10 214 -74 219 -69 2 2 30 66 63 143 40 95 64 139 73
136 8 -2 83 -6 167 -9 l152 -5 0 29 c0 70 1 69 -142 82 -71 6 -133 13 -136 16
-8 9 69 176 254 551 175 356 308 603 481 895 263 443 314 566 293 704 -14 93
-93 179 -190 206 -50 14 -166 11 -229 -6z m222 -111 c42 -18 67 -56 67 -100 0
-47 -43 -124 -193 -351 -299 -451 -560 -919 -841 -1511 l-78 -164 -67 179
c-121 322 -246 592 -356 768 l-47 76 58 67 c100 114 473 490 592 596 303 270
525 415 692 451 72 16 116 13 173 -11z m-2148 -717 c72 -19 156 -61 223 -111
60 -45 202 -188 238 -240 l22 -30 -110 -125 c-61 -69 -190 -220 -288 -337
l-178 -212 -79 55 c-166 113 -283 235 -347 362 -130 256 -21 539 243 629 77
26 197 30 276 9z m598 -548 c70 -113 179 -328 245 -483 58 -137 144 -364 157
-417 l7 -27 -134 35 c-275 73 -574 182 -771 280 l-98 50 152 179 c161 191 390
455 394 455 2 0 23 -33 48 -72z"/>
<path d="M9584 5131 c-66 -41 -114 -135 -114 -223 0 -57 38 -92 88 -84 128 23
230 209 159 291 -30 36 -91 43 -133 16z"/>
<path d="M2435 1599 c-38 -3 -79 -10 -90 -14 -92 -37 -66 -125 54 -179 73 -32
125 -42 311 -56 286 -22 1205 -129 1680 -196 96 -14 290 -45 430 -69 140 -25
426 -69 635 -100 981 -143 1247 -194 1428 -277 56 -26 82 -47 153 -124 110
-120 190 -180 339 -254 356 -176 628 -204 1183 -124 410 58 756 150 987 260
100 47 135 80 142 130 7 58 -15 87 -101 129 -123 61 -191 69 -601 69 -242 -1
-430 -6 -574 -17 -241 -19 -872 -23 -1077 -7 -145 11 -244 43 -355 115 -114
74 -170 89 -577 160 -141 24 -554 96 -917 159 -1324 230 -1407 244 -1865 301
-383 47 -758 84 -919 91 -75 2 -149 6 -166 7 -16 2 -61 0 -100 -4z"/>
</g>
</svg>
